<svg width="24" height="24" viewBox="0 0 24 24" fill="none" xmlns="http://www.w3.org/2000/svg">
  <path
    d="M18.3645 5.63551C18.0859 5.35681 17.7551 5.13572 17.391 4.98488C17.027 4.83404 16.6368 4.7564 16.2427 4.7564C15.8486 4.7564 15.4584 4.83404 15.0944 4.98488C14.7303 5.13572 14.3995 5.35681 14.121 5.63551L10.9395 8.82001L8.81845 6.69601L12 3.51601C12.5571 2.95883 13.2186 2.51685 13.9465 2.2153C14.6745 1.91375 15.4547 1.75854 16.2427 1.75854C17.0307 1.75854 17.8109 1.91375 18.5389 2.2153C19.2668 2.51685 19.9283 2.95883 20.4855 3.51601L21.546 4.57501L21.411 4.71001C22.0868 5.85567 22.3628 7.19343 22.1955 8.51301C22.0283 9.8326 21.4272 11.0592 20.487 12L17.3055 15.1815L15.183 13.0605L18.366 9.87901C18.6447 9.60042 18.8657 9.26965 19.0166 8.9056C19.1674 8.54154 19.2451 8.15133 19.2451 7.75726C19.2451 7.3632 19.1674 6.97299 19.0166 6.60893C18.8657 6.24488 18.6447 5.91411 18.366 5.63551H18.3645ZM5.63545 18.3645C5.91405 18.6432 6.24482 18.8643 6.60887 19.0151C6.97293 19.166 7.36314 19.2436 7.7572 19.2436C8.15127 19.2436 8.54148 19.166 8.90553 19.0151C9.26959 18.8643 9.60036 18.6432 9.87895 18.3645L13.0605 15.1815L15.1815 17.304L12 20.4825C11.4428 21.0397 10.7813 21.4817 10.0534 21.7832C9.3254 22.0848 8.54516 22.24 7.7572 22.24C6.96925 22.24 6.18901 22.0848 5.46103 21.7832C4.73306 21.4817 4.07161 21.0397 3.51445 20.4825L2.45395 19.4235L2.58895 19.2885C1.91349 18.143 1.63773 16.8056 1.80498 15.4863C1.97222 14.167 2.57301 12.9407 3.51295 12L6.69445 8.81851L8.81995 10.9395L5.63545 14.121C5.35675 14.3996 5.13566 14.7304 4.98482 15.0944C4.83398 15.4585 4.75634 15.8487 4.75634 16.2428C4.75634 16.6368 4.83398 17.027 4.98482 17.3911C5.13566 17.7552 5.35675 18.0859 5.63545 18.3645Z"
    fill="currentColor" />
  <path d="M16.2419 9.879L14.1209 7.758L7.75793 14.121L9.87893 16.242L16.2419 9.879Z" fill="currentColor" />
</svg>