<svg width="24" height="24" viewBox="0 0 24 24" fill="none" xmlns="http://www.w3.org/2000/svg">
  <path
    d="M3.4 3.4C2 4.81333 2 7.07333 2 11.6V12.4C2 16.92 2 19.18 3.4 20.6C4.81333 22 7.07333 22 11.6 22H12.4C16.92 22 19.18 22 20.6 20.6C22 19.1867 22 16.9267 22 12.4V11.6C22 7.08 22 4.82 20.6 3.4C19.1867 2 16.9267 2 12.4 2H11.6C7.08 2 4.82 2 3.4 3.4ZM5.37333 8.08667H7.66667C7.74 11.9 9.42 13.5133 10.7533 13.8467V8.08667H12.9067V11.3733C14.22 11.2333 15.6067 9.73333 16.0733 8.08H18.22C18.0448 8.9358 17.6951 9.7463 17.1927 10.4609C16.6903 11.1755 16.046 11.7789 15.3 12.2333C16.1327 12.6476 16.8681 13.2338 17.4576 13.9532C18.0471 14.6726 18.4774 15.5088 18.72 16.4067H16.3533C15.8467 14.8267 14.58 13.6 12.9067 13.4333V16.4067H12.64C8.08 16.4067 5.48 13.2867 5.37333 8.08667Z"
    fill="currentColor" />
</svg>