<svg width="25" height="24" viewBox="0 0 25 24" fill="none" xmlns="http://www.w3.org/2000/svg">
  <path
    d="M4.76 4.26C3.5 5.532 3.5 7.566 3.5 11.64V12.36C3.5 16.428 3.5 18.462 4.76 19.74C6.032 21 8.066 21 12.14 21H12.86C16.928 21 18.962 21 20.24 19.74C21.5 18.468 21.5 16.434 21.5 12.36V11.64C21.5 7.572 21.5 5.538 20.24 4.26C18.968 3 16.934 3 12.86 3H12.14C8.072 3 6.038 3 4.76 4.26ZM6.536 8.478H8.6C8.666 11.91 10.178 13.362 11.378 13.662V8.478H13.316V11.436C14.498 11.31 15.746 9.96 16.166 8.472H18.098C17.9404 9.24222 17.6256 9.97167 17.1735 10.6148C16.7213 11.258 16.1414 11.801 15.47 12.21C16.2194 12.5829 16.8813 13.1104 17.4118 13.7579C17.9424 14.4053 18.3297 15.1579 18.548 15.966H16.418C15.962 14.544 14.822 13.44 13.316 13.29V15.966H13.076C8.972 15.966 6.632 13.158 6.536 8.478Z"
    fill="currentColor" />
</svg>