<svg width="24" height="24" viewBox="0 0 24 24" fill="none" xmlns="http://www.w3.org/2000/svg">
  <mask id="mask0_2064_5265" style="mask-type:luminance" maskUnits="userSpaceOnUse" x="2" y="2" width="20" height="20">
    <path d="M2 2H22V22H2V2Z" fill="white" />
  </mask>
  <g mask="url(#mask0_2064_5265)">
    <path
      d="M13.8842 2.14721L13.2842 2.063C11.481 1.80264 9.64089 2.06021 7.97846 2.8057C6.31603 3.55118 4.89975 4.75386 3.89474 6.27352C2.82543 7.72613 2.18798 9.45114 2.05577 11.25C1.92355 13.0489 2.30193 14.8486 3.14737 16.4419C3.23389 16.6016 3.28776 16.777 3.30583 16.9577C3.3239 17.1384 3.30582 17.3209 3.25263 17.4946C2.82105 18.9788 2.42105 20.4735 2 22.0419L2.52632 21.8841C3.94737 21.5051 5.36842 21.1262 6.78947 20.7788C7.08941 20.7164 7.40117 20.7458 7.68421 20.863C8.95916 21.4852 10.3524 21.8276 11.7706 21.867C13.1887 21.9064 14.5989 21.6421 15.9064 21.0917C17.214 20.5413 18.3887 19.7175 19.3517 18.6758C20.3147 17.634 21.0437 16.3983 21.4898 15.0516C21.936 13.7049 22.0889 12.2783 21.9383 10.8676C21.7877 9.45697 21.3371 8.09483 20.6168 6.87264C19.8964 5.65044 18.923 4.59647 17.7618 3.78144C16.6006 2.96642 15.2785 2.40921 13.8842 2.14721ZM16.5368 15.9577C16.1543 16.3003 15.6878 16.5353 15.1848 16.6388C14.6819 16.7424 14.1604 16.7107 13.6737 16.5472C11.4684 15.9253 9.555 14.5415 8.27368 12.6419C7.78439 11.9699 7.39114 11.233 7.10526 10.4525C6.95037 9.9996 6.92244 9.51297 7.0245 9.04535C7.12656 8.57773 7.35471 8.14699 7.68421 7.79984C7.84462 7.59512 8.06296 7.44345 8.3108 7.36459C8.55863 7.28574 8.82447 7.28335 9.07368 7.35773C9.28421 7.41037 9.43158 7.71563 9.62105 7.94721C9.77544 8.3823 9.95439 8.80686 10.1579 9.22089C10.312 9.43195 10.3764 9.69542 10.337 9.95377C10.2975 10.2121 10.1575 10.4444 9.94737 10.5998C9.47368 11.0209 9.54737 11.3683 9.88421 11.8419C10.6285 12.9151 11.6561 13.7606 12.8526 14.2841C13.1895 14.4314 13.4421 14.463 13.6632 14.1156C13.7579 13.9788 13.8842 13.863 13.9895 13.7367C14.6 12.9683 14.4105 12.9788 15.3789 13.3998C15.6877 13.5297 15.986 13.6805 16.2737 13.8525C16.5579 14.0209 16.9895 14.1998 17.0526 14.4525C17.1134 14.7265 17.0974 15.0121 17.0064 15.2776C16.9154 15.5432 16.7529 15.7785 16.5368 15.9577Z"
      fill="currentColor" />
  </g>
</svg>