<svg width="25" height="24" viewBox="0 0 25 24" fill="none" xmlns="http://www.w3.org/2000/svg">
  <path
    d="M12.744 4C13.278 4.003 14.614 4.016 16.034 4.073L16.538 4.095C17.967 4.162 19.395 4.278 20.104 4.475C21.049 4.741 21.791 5.515 22.042 6.497C22.442 8.057 22.492 11.099 22.498 11.836L22.499 11.988V12.162C22.492 12.899 22.442 15.942 22.042 17.501C21.788 18.486 21.045 19.261 20.104 19.523C19.395 19.72 17.967 19.836 16.538 19.903L16.034 19.926C14.614 19.982 13.278 19.996 12.744 19.998L12.509 19.999H12.254C11.124 19.992 6.398 19.941 4.894 19.523C3.95 19.257 3.207 18.483 2.956 17.501C2.556 15.941 2.506 12.899 2.5 12.162V11.836C2.506 11.099 2.556 8.056 2.956 6.497C3.21 5.512 3.953 4.737 4.895 4.476C6.398 4.057 11.125 4.006 12.255 4H12.744ZM10.499 8.5V15.5L16.499 12L10.499 8.5Z"
    fill="currentColor" />
</svg>