<svg width="24" height="24" viewBox="0 0 24 24" fill="none" xmlns="http://www.w3.org/2000/svg">
  <path
    d="M12.269 3C12.8564 3.0033 14.3261 3.0176 15.8881 3.0803L16.4426 3.1045C18.0146 3.17821 19.5854 3.30582 20.3654 3.52253C21.4049 3.81514 22.2212 4.66658 22.4973 5.74684C22.9373 7.46292 22.9923 10.8093 22.9989 11.62L23 11.7872V11.9786C22.9923 12.7894 22.9373 16.1369 22.4973 17.8518C22.2179 18.9354 21.4005 19.7879 20.3654 20.0762C19.5854 20.2929 18.0146 20.4205 16.4426 20.4942L15.8881 20.5195C14.3261 20.5811 12.8564 20.5965 12.269 20.5987L12.0105 20.5998H11.7299C10.4869 20.5921 5.28801 20.536 3.63353 20.0762C2.59508 19.7835 1.77774 18.9321 1.50163 17.8518C1.0616 16.1358 1.0066 12.7894 1 11.9786V11.62C1.0066 10.8093 1.0616 7.46182 1.50163 5.74684C1.78104 4.66328 2.59838 3.81074 3.63463 3.52363C5.28801 3.0627 10.488 3.0066 11.731 3H12.269ZM9.79934 7.95025V15.6506L16.3997 11.8004L9.79934 7.95025Z"
    fill="currentColor" />
</svg>