<svg width="100%" height="100%" viewBox="0 0 24 24" fill="none" xmlns="http://www.w3.org/2000/svg">
  <path
    d="M18.6071 11.035V18.964C18.6092 19.266 18.5511 19.5654 18.4361 19.8446C18.3211 20.1238 18.1515 20.3773 17.9373 20.5902C17.7231 20.8031 17.4686 20.9711 17.1887 21.0844C16.9088 21.1977 16.609 21.254 16.3071 21.25H5.05006C4.74698 21.2539 4.4462 21.1971 4.16544 21.0828C3.88469 20.9686 3.62965 20.7993 3.41537 20.585C3.2011 20.3706 3.03192 20.1155 2.91783 19.8347C2.80373 19.5539 2.74702 19.2531 2.75106 18.95V7.693C2.74743 7.38996 2.80445 7.08925 2.91876 6.80856C3.03306 6.52788 3.20234 6.27288 3.41664 6.05858C3.63094 5.84428 3.88593 5.675 4.16662 5.5607C4.4473 5.4464 4.74801 5.38938 5.05106 5.393H12.9791M21.2501 2.75L10.6791 13.321M21.2501 2.75H15.9641M21.2501 2.75V8.036"
    stroke="currentColor" stroke-width="1.5" stroke-linecap="round" stroke-linejoin="round" />
</svg>