<svg width="48" height="48" viewBox="0 0 48 48" fill="none" xmlns="http://www.w3.org/2000/svg">
  <path
    d="M5 24C5 15.044 5 10.564 7.782 7.782C10.564 5 15.042 5 24 5C32.956 5 37.436 5 40.218 7.782C43 10.564 43 15.042 43 24C43 32.956 43 37.436 40.218 40.218C37.436 43 32.958 43 24 43C15.044 43 10.564 43 7.782 40.218C5 37.436 5 32.958 5 24Z"
    stroke="currentColor" stroke-width="3" stroke-linecap="round" stroke-linejoin="round" />
  <path
    d="M35.016 13H34.996M33 24C33 26.3869 32.0518 28.6761 30.364 30.364C28.6761 32.0518 26.3869 33 24 33C21.6131 33 19.3239 32.0518 17.636 30.364C15.9482 28.6761 15 26.3869 15 24C15 21.6131 15.9482 19.3239 17.636 17.636C19.3239 15.9482 21.6131 15 24 15C26.3869 15 28.6761 15.9482 30.364 17.636C32.0518 19.3239 33 21.6131 33 24Z"
    stroke="currentColor" stroke-width="3" stroke-linecap="round" stroke-linejoin="round" />
</svg>