<svg width="48" height="48" viewBox="0 0 48 48" fill="none" xmlns="http://www.w3.org/2000/svg">
  <path
    d="M19.2498 26.921C19.587 27.4736 19.9861 27.9914 20.4468 28.4744C21.7805 29.8882 23.5605 30.7994 25.4873 31.0547C27.4141 31.3099 29.37 30.8935 31.0257 29.8757C31.6449 29.4957 32.2228 29.0286 32.7596 28.4744L40.4527 20.4654C43.8492 16.9264 43.8492 11.1928 40.4527 7.65381C39.6615 6.81572 38.7074 6.14805 37.649 5.69171C36.5906 5.23538 35.4501 5 34.2975 5C33.1449 5 32.0045 5.23538 30.946 5.69171C29.8876 6.14805 28.9336 6.81572 28.1423 7.65381L26.4465 9.41855"
    stroke="currentColor" stroke-width="3" stroke-linecap="round" stroke-linejoin="round" />
  <path
    d="M21.5536 38.5854L19.8601 40.3501C19.0688 41.1886 18.1146 41.8566 17.056 42.3131C15.9974 42.7697 14.8566 43.0052 13.7037 43.0052C12.5508 43.0052 11.4101 42.7697 10.3515 42.3131C9.29284 41.8566 8.33863 41.1886 7.54735 40.3501C4.15088 36.8112 4.15088 31.0752 7.54735 27.5386L15.2428 19.5296C16.0341 18.6915 16.9882 18.0238 18.0466 17.5675C19.105 17.1111 20.2454 16.8758 21.398 16.8758C22.5506 16.8758 23.6911 17.1111 24.7495 17.5675C25.8079 18.0238 26.762 18.6915 27.5532 19.5296C28.014 20.0125 28.413 20.5303 28.7503 21.0829"
    stroke="currentColor" stroke-width="3" stroke-linecap="round" stroke-linejoin="round" />
</svg>