<svg width="48" height="48" viewBox="0 0 48 48" fill="none" xmlns="http://www.w3.org/2000/svg">
  <path
    d="M23.97 30.816L30.454 38.188C32.854 40.918 34.056 42.284 35.314 41.95C36.57 41.618 37.002 39.822 37.864 36.228L42.644 16.292C43.974 10.756 44.638 7.98999 43.162 6.62399C41.686 5.25799 39.128 6.27399 34.012 8.30399L10.28 17.73C6.18797 19.356 4.14197 20.168 4.01197 21.564C3.99666 21.7062 3.99666 21.8497 4.01197 21.992C4.13797 23.39 6.17997 24.208 10.268 25.846C12.118 26.588 13.044 26.96 13.708 27.67C13.7826 27.75 13.8546 27.8327 13.924 27.918C14.536 28.678 14.796 29.678 15.318 31.67L16.296 35.404C16.802 37.344 17.056 38.316 17.722 38.448C18.388 38.58 18.966 37.776 20.124 36.166L23.97 30.816ZM23.97 30.816L23.336 30.156C22.612 29.4 22.25 29.024 22.25 28.556C22.25 28.088 22.61 27.71 23.336 26.956L30.482 19.508"
    stroke="currentColor" stroke-width="3" stroke-linecap="round" stroke-linejoin="round" />
</svg>