<svg width="48" height="48" viewBox="0 0 48 48" fill="none" xmlns="http://www.w3.org/2000/svg">
  <path
    d="M28.0001 21.498V14.106C28.0001 12.44 27.6981 12.106 26.0401 12.106L21.3401 12C19.8761 12 19.1441 12 18.8481 12.474C18.5521 12.948 18.8801 13.598 19.5341 14.894C19.8981 15.614 20.0941 16.136 20.0941 16.944V22.264C20.0941 23.944 20.0941 24.786 19.4541 25.036C18.8141 25.284 18.2841 24.72 17.2201 23.592C14.6201 20.824 13.2641 17.368 12.3741 13.6C12.1901 12.82 12.0981 12.43 11.8221 12.214C11.5461 11.998 11.1521 12 10.3681 12H5.96806C5.00406 12 4.52206 12 4.22006 12.34C3.92006 12.682 3.97806 13.118 4.09406 13.988C5.15006 21.842 12.0561 34.72 24.8141 35.948C27.0741 36.164 28.0001 35.554 28.0001 33.078C28.0001 31.674 27.9701 29.406 29.7361 29.108C30.6621 28.952 31.2841 29.282 32.3181 30.148C34.1101 31.652 35.0501 33.488 35.7041 34.882C36.1381 35.806 36.4601 36 37.4801 36H41.6281C43.7241 36 44.2941 35.488 43.3601 33.52C42.3045 31.3129 40.8101 29.3441 38.9681 27.734C37.6961 26.64 37.0621 26.094 37.0281 25.69C36.9901 25.288 37.4561 24.718 38.3881 23.578C40.1881 21.374 42.6401 17.916 43.7841 14.246C44.3521 12.426 43.8181 12 41.9761 12H38.2501C36.4441 12 36.4461 11.938 36.0201 13.986C35.3281 17.308 33.0641 20.502 30.9361 22.676C29.9261 23.708 29.3161 24.33 28.6861 24.076C28.0561 23.822 28.0001 23.05 28.0001 21.498Z"
    stroke="currentColor" stroke-width="3" stroke-linecap="round" stroke-linejoin="round" />
</svg>