<svg width="48" height="48" viewBox="0 0 48 48" fill="none" xmlns="http://www.w3.org/2000/svg">
  <path
    d="M24 44C35.046 44 44 35.046 44 24C44 12.954 35.046 4 24 4C12.954 4 4 12.954 4 24C4 26.758 4.56 29.386 5.568 31.776C6.126 33.096 6.404 33.756 6.44 34.256C6.474 34.756 6.326 35.304 6.032 36.402L4 44L11.598 41.968C12.696 41.674 13.244 41.528 13.744 41.56C14.244 41.596 14.904 41.874 16.224 42.432C18.6853 43.4686 21.3293 44.0018 24 44Z"
    stroke="currentColor" stroke-width="3" stroke-linecap="round" stroke-linejoin="round" />
  <path
    d="M17.1761 24.754L18.9181 22.592C19.6521 21.68 20.5581 20.832 20.6321 19.616C20.6481 19.31 20.4321 17.934 20.0021 15.18C19.8321 14.098 18.8201 14 17.9461 14C16.8061 14 16.2361 14 15.6701 14.26C14.9541 14.586 14.2201 15.504 14.0581 16.274C13.9301 16.884 14.0261 17.304 14.2161 18.144C15.0201 21.71 16.9101 25.232 19.8381 28.162C22.7681 31.09 26.2901 32.98 29.8581 33.784C30.6981 33.974 31.1161 34.07 31.7261 33.942C32.4961 33.782 33.4141 33.046 33.7421 32.33C34.0001 31.764 34.0001 31.194 34.0001 30.054C34.0001 29.178 33.9021 28.168 32.8201 27.998C30.0661 27.566 28.6901 27.352 28.3841 27.368C27.1701 27.44 26.3201 28.348 25.4081 29.082L23.2461 30.822"
    stroke="currentColor" stroke-width="3" stroke-linecap="round" stroke-linejoin="round" />
</svg>