<svg width="48" height="48" viewBox="0 0 48 48" fill="none" xmlns="http://www.w3.org/2000/svg">
  <path
    d="M24 43C34.4937 43 43 34.4937 43 24C43 13.5063 34.4937 5 24 5C13.5063 5 5 13.5063 5 24C5 26.6201 5.532 29.1167 6.4896 31.3872C7.0197 32.6412 7.2838 33.2682 7.318 33.7432C7.3503 34.2182 7.2097 34.7388 6.9304 35.7819L5 43L12.2181 41.0696C13.2612 40.7903 13.7818 40.6516 14.2568 40.682C14.7318 40.7162 15.3588 40.9803 16.6128 41.5104C18.951 42.4952 21.4628 43.0017 24 43Z"
    stroke="currentColor" stroke-width="3" stroke-linecap="round" stroke-linejoin="round" />
  <path
    d="M17.5173 24.7163L19.1722 22.6624C19.8695 21.796 20.7302 20.9904 20.8005 19.8352C20.8157 19.5445 20.6105 18.2373 20.202 15.621C20.0405 14.5931 19.0791 14.5 18.2488 14.5C17.1658 14.5 16.6243 14.5 16.0866 14.747C15.4064 15.0567 14.7091 15.9288 14.5552 16.6603C14.4336 17.2398 14.5248 17.6388 14.7053 18.4368C15.4691 21.8245 17.2646 25.1704 20.0462 27.9539C22.8297 30.7355 26.1756 32.531 29.5652 33.2948C30.3632 33.4753 30.7603 33.5665 31.3398 33.4449C32.0713 33.2929 32.9434 32.5937 33.255 31.9135C33.5001 31.3758 33.5001 30.8343 33.5001 29.7513C33.5001 28.9191 33.407 27.9596 32.3791 27.7981C29.7628 27.3877 28.4556 27.1844 28.1649 27.1996C27.0116 27.268 26.2041 28.1306 25.3377 28.8279L23.2838 30.4809"
    stroke="currentColor" stroke-width="3" stroke-linecap="round" stroke-linejoin="round" />
</svg>