<svg width="48" height="48" viewBox="0 0 48 48" fill="none" xmlns="http://www.w3.org/2000/svg">
  <path
    d="M24 41C27.62 41 31.09 40.642 34.306 39.986C38.326 39.166 40.334 38.758 42.166 36.402C44 34.044 44 31.338 44 25.926V22.074C44 16.662 44 13.954 42.166 11.598C40.334 9.24201 38.326 8.83201 34.306 8.01401C30.913 7.33393 27.4605 6.99424 24 7.00001C20.38 7.00001 16.91 7.35801 13.694 8.01401C9.674 8.83401 7.666 9.24201 5.834 11.598C4 13.956 4 16.662 4 22.074V25.926C4 31.338 4 34.046 5.834 36.402C7.666 38.758 9.674 39.168 13.694 39.986C16.91 40.642 20.38 41 24 41Z"
    stroke="currentColor" stroke-width="3" stroke-linecap="round" stroke-linejoin="round" />
  <path
    d="M31.924 24.626C31.628 25.838 30.048 26.706 26.89 28.448C23.454 30.342 21.736 31.288 20.346 30.922C19.8828 30.8024 19.45 30.5864 19.076 30.288C18 29.418 18 27.612 18 24C18 20.388 18 18.582 19.076 17.712C19.44 17.418 19.876 17.2 20.346 17.078C21.736 16.712 23.454 17.658 26.89 19.552C30.05 21.292 31.628 22.162 31.924 23.374C32.024 23.786 32.024 24.214 31.924 24.626Z"
    stroke="currentColor" stroke-width="3" stroke-linecap="round" stroke-linejoin="round" />
</svg>