<svg width="56" height="56" viewBox="0 0 56 56" fill="none" xmlns="http://www.w3.org/2000/svg">
  <path
    d="M0.800003 27.9998C0.800003 12.9598 12.96 0.799805 28 0.799805C43.04 0.799805 55.2 12.9598 55.2 27.9998C55.2 43.0398 43.04 55.1998 28 55.1998C12.96 55.1998 0.800003 43.0398 0.800003 27.9998ZM52 27.9998C52 14.7198 41.28 3.9998 28 3.9998C14.72 3.9998 4 14.7198 4 27.9998C4 41.2798 14.72 51.9998 28 51.9998C41.28 51.9998 52 41.2798 52 27.9998Z"
    fill="currentColor" />
  <path d="M25.28 41.2805L38.56 28.0005L25.28 14.7205L27.52 12.4805L43.04 28.0005L27.52 43.5205L25.28 41.2805Z"
    fill="currentColor" />
  <path d="M40.8 26.4004V29.6004L13.6 29.6004V26.4004L40.8 26.4004Z" fill="currentColor" />
</svg>