<svg width="56" height="56" viewBox="0 0 56 56" fill="none" xmlns="http://www.w3.org/2000/svg">
  <path
    d="M55.2 28.0002C55.2 43.0402 43.04 55.2002 28 55.2002C12.96 55.2002 0.800003 43.0402 0.800003 28.0002C0.800003 12.9602 12.96 0.800194 28 0.800194C43.04 0.800194 55.2 12.9602 55.2 28.0002ZM4 28.0002C4 41.2802 14.72 52.0002 28 52.0002C41.28 52.0002 52 41.2802 52 28.0002C52 14.7202 41.28 4.00019 28 4.00019C14.72 4.00019 4 14.7202 4 28.0002Z"
    fill="currentColor" />
  <path d="M30.72 14.7195L17.44 27.9995L30.72 41.2795L28.48 43.5195L12.96 27.9995L28.48 12.4795L30.72 14.7195Z"
    fill="currentColor" />
  <path d="M15.2 29.5996V26.3996L42.4 26.3996V29.5996L15.2 29.5996Z" fill="currentColor" />
</svg>