<svg width="104" height="48" viewBox="0 0 104 48" fill="none" xmlns="http://www.w3.org/2000/svg">
  <path fill-rule="evenodd" clip-rule="evenodd"
    d="M15.9794 20.7842C15.1623 20.7842 14.5 21.4465 14.5 22.2636C14.5 23.0806 15.1623 23.7429 15.9794 23.7429H16.0206C16.8377 23.7429 17.5 23.0806 17.5 22.2636C17.5 21.4465 16.8377 20.7842 16.0206 20.7842H15.9794ZM13.5 22.2636C13.5 20.8942 14.6101 19.7842 15.9794 19.7842H16.0206C17.3899 19.7842 18.5 20.8942 18.5 22.2636C18.5 23.6329 17.3899 24.7429 16.0206 24.7429H15.9794C14.6101 24.7429 13.5 23.6329 13.5 22.2636Z"
    fill="currentColor" />
  <path fill-rule="evenodd" clip-rule="evenodd" d="M16.5 8.90002V15.8369H15.5V8.90002H16.5Z" fill="currentColor " />
  <path fill-rule="evenodd" clip-rule="evenodd"
    d="M25.9211 25.1039H29.0481L29.0567 25.0934L28.2844 24.4581L16.6078 14.8535L15.9726 14.331L15.3373 14.8535L3.66072 24.4581L2.88843 25.0934L2.89706 25.1039H6.02397L15.9726 16.9206L25.9211 25.1039Z"
    fill="currentColor" />
  <path fill-rule="evenodd" clip-rule="evenodd" d="M13.5 10.879L18.5 10.879L18.5 11.879L13.5 11.879L13.5 10.879Z"
    fill="currentColor" />
  <path fill-rule="evenodd" clip-rule="evenodd"
    d="M0.740723 28.762L5.741 25.7934L6.2595 26.6484L1.25922 29.617L0.740723 28.762Z" fill="currentColor " />
  <path fill-rule="evenodd" clip-rule="evenodd"
    d="M2 15.2129V18.3054H0V15.1514C0 15.115 0.0019927 15.0785 0.00596917 15.0423L1 15.1514C0.00596917 15.0423 0.0060271 15.0418 0.00609106 15.0412L0.00624901 15.0398L0.00667518 15.036L0.00798202 15.0247L0.0125212 14.9875C0.016444 14.9563 0.022217 14.9124 0.030168 14.8567C0.0460664 14.7453 0.0706961 14.5863 0.106692 14.3867C0.178632 13.9877 0.29627 13.4244 0.48096 12.7513C0.84933 11.4088 1.48992 9.60922 2.5814 7.80105C4.78607 4.14874 8.83053 0.484253 16 0.484253C23.1695 0.484253 27.2139 4.14874 29.4186 7.80105C30.5101 9.60922 31.1507 11.4088 31.519 12.7513C31.7037 13.4244 31.8214 13.9877 31.8933 14.3867C31.9293 14.5863 31.9539 14.7453 31.9698 14.8567C31.9778 14.9124 31.9836 14.9563 31.9875 14.9875L31.992 15.0247L31.9933 15.036L31.9938 15.0398L31.9939 15.0412C31.994 15.0418 31.994 15.0423 31 15.1514L31.994 15.0423C31.998 15.0785 32 15.115 32 15.1514V17.2541H30V15.2129C29.9975 15.1937 29.9941 15.169 29.9899 15.1392C29.9772 15.0504 29.9564 14.9157 29.925 14.7416C29.8622 14.3932 29.7572 13.8887 29.5903 13.2805C29.2556 12.0605 28.6774 10.4432 27.7064 8.83462C25.786 5.65335 22.3305 2.48425 16 2.48425C9.6695 2.48425 6.21397 5.65335 4.29363 8.83462C3.3226 10.4432 2.74444 12.0605 2.40967 13.2805C2.2428 13.8887 2.13778 14.3932 2.07495 14.7416C2.04356 14.9157 2.02278 15.0504 2.01012 15.1392C2.00585 15.169 2.00251 15.1937 2 15.2129Z"
    fill="currentColor" />
  <path fill-rule="evenodd" clip-rule="evenodd"
    d="M15.498 6.01943V2.47363H16.498V6.01912C16.3333 6.00648 16.1672 6.00006 16 6.00006C15.8314 6.00006 15.664 6.00658 15.498 6.01943ZM12.0458 7.30507L9.80997 3.2232L8.93292 3.70361L11.2569 7.94645C11.5089 7.7141 11.7723 7.4998 12.0458 7.30507ZM9.3195 10.4966L4.20112 7.00792L3.63792 7.83425L8.88924 11.4135C9.01989 11.0977 9.16361 10.7917 9.3195 10.4966ZM8.12793 14.2094L2.13158 13.3577L1.99097 14.3478L8.02494 15.2048C8.04614 14.868 8.08069 14.5359 8.12793 14.2094ZM23.975 15.2042L30.005 14.3478L29.8644 13.3577L23.872 14.2088C23.9192 14.5354 23.9538 14.8674 23.975 15.2042ZM23.0049 11.1662L27.8934 7.83425L27.3302 7.00792L22.5536 10.2636C22.7164 10.5536 22.8671 10.8548 23.0049 11.1662ZM20.6585 7.86946L22.9402 3.70361L22.0632 3.2232L19.8626 7.24081C20.1382 7.43113 20.4039 7.64119 20.6585 7.86946Z"
    fill="currentColor" />
  <path fill-rule="evenodd" clip-rule="evenodd"
    d="M25 48V46V40.0001V25.2316V24.2316H27V25.2316V46H30V16.3264H32V47V48H31H25ZM18.5 46V48H17.5V46.9999V46V45.4999V29.9999C17.5 29.1715 16.8284 28.4999 16 28.4999C15.1716 28.4999 14.5 29.1715 14.5 29.9999V45.4999V46V46.9999V48H13.5V46V41V29.9999C13.5 28.6192 14.6193 27.4999 16 27.4999C17.3807 27.4999 18.5 28.6192 18.5 29.9999V40.0001V46ZM7 48V46V41V25.2316V24.2316H5V25.2316V46H2V16.3264H0V47V48H1H7Z"
    fill="currentColor" />
  <path fill-rule="evenodd" clip-rule="evenodd"
    d="M31.2593 28.762L26.259 25.7934L25.7405 26.6484L30.7408 29.617L31.2593 28.762Z" fill="currentColor " />
  <path
    d="M47.7 23H41.98V24.92H40.48V21.62H41.38C41.6067 21.3667 41.76 21.0867 41.84 20.78C41.92 20.46 41.9733 20.06 42 19.58L42.54 9H48.16V21.62H49.22V24.92H47.7V23ZM43.52 19.56C43.4933 20.08 43.4333 20.5 43.34 20.82C43.2467 21.1267 43.0933 21.3933 42.88 21.62H46.58V10.42H43.98L43.52 19.56ZM50.4652 12.38C50.4652 11.2867 50.7318 10.4267 51.2652 9.8C51.8118 9.17333 52.6118 8.86 53.6652 8.86C54.7185 8.86 55.5185 9.17333 56.0652 9.8C56.6118 10.4267 56.8852 11.2867 56.8852 12.38V19.62C56.8852 20.7133 56.6118 21.5733 56.0652 22.2C55.5185 22.8267 54.7185 23.14 53.6652 23.14C52.6252 23.14 51.8318 22.8267 51.2852 22.2C50.7385 21.5733 50.4652 20.7133 50.4652 19.62V12.38ZM52.0052 19.7C52.0052 20.3533 52.1452 20.8533 52.4252 21.2C52.7052 21.5467 53.1185 21.72 53.6652 21.72C54.7718 21.72 55.3252 21.0467 55.3252 19.7V12.3C55.3252 11.66 55.1852 11.1667 54.9052 10.82C54.6385 10.46 54.2252 10.28 53.6652 10.28C53.1185 10.28 52.7052 10.46 52.4252 10.82C52.1452 11.1667 52.0052 11.66 52.0052 12.3V19.7ZM62.0186 22.98L59.6986 11.84V23H58.3386V9H60.5186L62.8186 20.18L65.0386 9H67.2186V23H65.7386V11.74L63.5186 22.98H62.0186ZM44.46 42.98L42.14 31.84V43H40.78V29H42.96L45.26 40.18L47.48 29H49.66V43H48.18V31.74L45.96 42.98H44.46ZM51.1488 32.38C51.1488 31.2867 51.4154 30.4267 51.9488 29.8C52.4954 29.1733 53.2954 28.86 54.3488 28.86C55.4021 28.86 56.2021 29.1733 56.7488 29.8C57.2954 30.4267 57.5688 31.2867 57.5688 32.38V39.62C57.5688 40.7133 57.2954 41.5733 56.7488 42.2C56.2021 42.8267 55.4021 43.14 54.3488 43.14C53.3088 43.14 52.5154 42.8267 51.9688 42.2C51.4221 41.5733 51.1488 40.7133 51.1488 39.62V32.38ZM52.6888 39.7C52.6888 40.3533 52.8288 40.8533 53.1087 41.2C53.3888 41.5467 53.8021 41.72 54.3488 41.72C55.4554 41.72 56.0088 41.0467 56.0088 39.7V32.3C56.0088 31.66 55.8688 31.1667 55.5888 30.82C55.3221 30.46 54.9088 30.28 54.3488 30.28C53.8021 30.28 53.3888 30.46 53.1087 30.82C52.8288 31.1667 52.6888 31.66 52.6888 32.3V39.7ZM61.7022 39.52C61.6622 40.7067 61.4355 41.5867 61.0222 42.16C60.6089 42.72 59.8955 43.0067 58.8822 43.02H58.6222V41.6C59.2355 41.6 59.6422 41.4533 59.8422 41.16C60.0422 40.8533 60.1555 40.3333 60.1822 39.6L60.5622 29H66.2622V43H64.7022V30.42H62.0222L61.7022 39.52ZM69.5489 43H67.9289V29H69.3089V39.44L70.5489 35.58L72.7889 29H74.5289V43H73.1289V31.86L71.6089 36.54L69.5489 43ZM78.2525 30.42H75.6725V29H82.3925V30.42H79.8125V43H78.2525V30.42ZM86.6939 29C87.7606 29 88.5339 29.2533 89.0139 29.76C89.4939 30.2667 89.7339 31.0467 89.7339 32.1V32.76C89.7339 33.5333 89.6072 34.1467 89.3539 34.6C89.1006 35.04 88.6806 35.3533 88.0939 35.54C89.3472 35.8867 89.9739 36.8867 89.9739 38.54V39.72C89.9739 40.7867 89.7072 41.6 89.1739 42.16C88.6539 42.72 87.8539 43 86.7739 43H83.5539V29H86.6939ZM86.3139 34.94C86.9672 34.94 87.4406 34.8067 87.7339 34.54C88.0406 34.2733 88.1939 33.7867 88.1939 33.08V32.26C88.1939 31.6333 88.0739 31.1733 87.8339 30.88C87.5939 30.5733 87.2006 30.42 86.6539 30.42H85.1139V34.94H86.3139ZM86.7739 41.58C87.3472 41.58 87.7672 41.4267 88.0339 41.12C88.3006 40.8133 88.4339 40.3333 88.4339 39.68V38.44C88.4339 37.68 88.2806 37.1467 87.9739 36.84C87.6672 36.52 87.1672 36.36 86.4739 36.36H85.1139V41.58H86.7739ZM94.3259 34.52C96.4993 34.52 97.5859 35.6467 97.5859 37.9V39.58C97.5859 40.6733 97.3259 41.52 96.8059 42.12C96.2993 42.7067 95.5126 43 94.4459 43H91.3859V29H92.9459V34.52H94.3259ZM100.426 43H98.8859V29H100.426V43ZM94.4459 41.58C95.0059 41.58 95.4126 41.4267 95.6659 41.12C95.9193 40.8 96.0459 40.3133 96.0459 39.66V37.8C96.0459 37.1333 95.9059 36.6533 95.6259 36.36C95.3459 36.0667 94.9126 35.92 94.3259 35.92H92.9459V41.58H94.4459Z"
    fill="currentColor" />
</svg>