<svg viewBox="0 0 77 55" fill="none" xmlns="http://www.w3.org/2000/svg">
  <path fill-rule="evenodd" clip-rule="evenodd"
    d="M62.6468 16.1297C61.9701 16.1297 61.4215 16.6559 61.4215 17.3051C61.4215 17.9543 61.9701 18.4806 62.6468 18.4806H62.6809C63.3576 18.4806 63.9062 17.9543 63.9062 17.3051C63.9062 16.6559 63.3576 16.1297 62.6809 16.1297H62.6468ZM60.5933 17.3051C60.5933 16.2171 61.5127 15.3351 62.6468 15.3351H62.6809C63.815 15.3351 64.7344 16.2171 64.7344 17.3051C64.7344 18.3931 63.815 19.2751 62.6809 19.2751H62.6468C61.5127 19.2751 60.5933 18.3931 60.5933 17.3051Z"
    fill="currentColor" />
  <path fill-rule="evenodd" clip-rule="evenodd" d="M63.0779 6.68687V12.1987H62.2497V6.68687H63.0779Z"
    fill="currentColor" />
  <path fill-rule="evenodd" clip-rule="evenodd"
    d="M70.8807 19.5619H73.4704L73.4776 19.5535L62.6411 11.0021L51.8047 19.5535L51.8118 19.5619H54.4016L62.6411 13.0598L70.8807 19.5619Z"
    fill="currentColor" />
  <path fill-rule="evenodd" clip-rule="evenodd" d="M60.5933 8.25927L64.7344 8.25927V9.05384L60.5933 9.05384V8.25927Z"
    fill="currentColor" />
  <path fill-rule="evenodd" clip-rule="evenodd"
    d="M50.0259 22.4685L54.1672 20.1097L54.5966 20.7891L50.4553 23.1479L50.0259 22.4685Z" fill="currentColor" />
  <path fill-rule="evenodd" clip-rule="evenodd"
    d="M51.0689 11.7028V14.16H49.4124V11.654C49.4124 11.625 49.4141 11.5961 49.4174 11.5673L50.2406 11.654C49.4174 11.5673 49.4173 11.5678 49.4174 11.5673L49.4176 11.5653L49.418 11.5623L49.419 11.5533L49.4228 11.5238C49.426 11.499 49.4308 11.4641 49.4374 11.4198C49.4506 11.3313 49.471 11.205 49.5008 11.0464C49.5604 10.7294 49.6578 10.2818 49.8108 9.74698C50.1159 8.68024 50.6464 7.25037 51.5504 5.81367C53.3763 2.91167 56.726 0 62.6638 0C68.6017 0 71.9514 2.91167 73.7773 5.81367C74.6813 7.25038 75.2118 8.68024 75.5169 9.74698C75.6699 10.2818 75.7673 10.7294 75.8269 11.0464C75.8567 11.205 75.8771 11.3313 75.8903 11.4198C75.8969 11.4641 75.9016 11.499 75.9049 11.5238L75.9086 11.5533L75.9097 11.5623L75.9101 11.5653C75.9101 11.5658 75.9103 11.5673 75.087 11.654L75.9103 11.5673C75.9136 11.5961 75.9153 11.625 75.9153 11.654V13.3247H74.2588V11.7028C74.2567 11.6876 74.254 11.668 74.2504 11.6443C74.24 11.5737 74.2227 11.4667 74.1968 11.3284C74.1447 11.0515 74.0577 10.6507 73.9195 10.1675C73.6423 9.19805 73.1634 7.91306 72.3592 6.6349C70.7688 4.10718 67.9068 1.58913 62.6638 1.58913C57.4208 1.58913 54.5589 4.10718 52.9685 6.6349C52.1643 7.91306 51.6854 9.19805 51.4082 10.1675C51.2699 10.6507 51.183 11.0515 51.1309 11.3284C51.1049 11.4667 51.0877 11.5737 51.0772 11.6443C51.0737 11.668 51.0709 11.6876 51.0689 11.7028Z"
    fill="currentColor" />
  <path fill-rule="evenodd" clip-rule="evenodd"
    d="M62.2481 4.39801V1.58064H63.0763V4.39776C62.9399 4.38771 62.8024 4.38262 62.6638 4.38262C62.5242 4.38262 62.3856 4.3878 62.2481 4.39801ZM59.3889 5.41953L57.5372 2.17622L56.8108 2.55794L58.7355 5.92915C58.9443 5.74453 59.1624 5.57425 59.3889 5.41953ZM57.131 7.95538L52.8919 5.18343L52.4254 5.84L56.7746 8.68396C56.8828 8.433 57.0019 8.18985 57.131 7.95538ZM56.1441 10.9054L51.1778 10.2287L51.0614 11.0154L56.0588 11.6964C56.0764 11.4288 56.105 11.1649 56.1441 10.9054ZM69.2689 11.6959L74.263 11.0154L74.1465 10.2287L69.1835 10.905C69.2227 11.1645 69.2513 11.4283 69.2689 11.6959ZM68.4654 8.48748L72.5142 5.84L72.0477 5.18343L68.0917 7.77029C68.2264 8.00068 68.3513 8.24004 68.4654 8.48748ZM66.522 5.86798L68.4118 2.55794L67.6855 2.17622L65.8629 5.36847C66.0912 5.51969 66.3112 5.6866 66.522 5.86798Z"
    fill="currentColor" />
  <path fill-rule="evenodd" clip-rule="evenodd"
    d="M70.1178 32.9869V18.0806H71.7742V31.7326H74.2588V13.1228H75.9153V32.9869H70.1178ZM64.7344 32.9869H63.9062V21.6982C63.9062 21.1786 63.35 20.7575 62.6638 20.7575C61.9777 20.7575 61.4215 21.1786 61.4215 21.6982V32.9869H60.5933V21.6982C60.5933 20.8323 61.5203 20.1303 62.6638 20.1303C63.8074 20.1303 64.7344 20.8323 64.7344 21.6982V32.9869ZM55.2099 32.9869V18.0806H53.5535V31.7326H51.0689V13.1228H49.4124V32.9869H55.2099Z"
    fill="currentColor" />
  <path fill-rule="evenodd" clip-rule="evenodd"
    d="M75.3018 22.4685L71.1605 20.1097L70.7311 20.7891L74.8723 23.1479L75.3018 22.4685Z" fill="currentColor" />
  <path
    d="M12.0853 32.9869H2.51079V36.1906H0V30.6843H1.50648C1.88589 30.2616 2.14254 29.7944 2.27645 29.2827C2.41036 28.7487 2.49964 28.0813 2.54427 27.2804L3.44816 9.62674H12.8553V30.6843H14.6296V36.1906H12.0853V32.9869ZM5.08854 27.247C5.04391 28.1147 4.94347 28.8155 4.78725 29.3494C4.63102 29.8611 4.37436 30.3061 4.01727 30.6843H10.2106V11.9961H5.85852L5.08854 27.247Z"
    fill="currentColor" />
  <path
    d="M16.7138 15.2666C16.7138 13.4422 17.1601 12.0073 18.0529 10.9616C18.9679 9.91596 20.307 9.39314 22.0701 9.39314C23.8333 9.39314 25.1724 9.91596 26.0874 10.9616C27.0025 12.0073 27.46 13.4422 27.46 15.2666V27.3471C27.46 29.1714 27.0025 30.6064 26.0874 31.6521C25.1724 32.6977 23.8333 33.2205 22.0701 33.2205C20.3293 33.2205 19.0014 32.6977 18.0863 31.6521C17.1713 30.6064 16.7138 29.1714 16.7138 27.3471V15.2666ZM19.2915 27.4806C19.2915 28.5708 19.5259 29.405 19.9946 29.9835C20.4632 30.5619 21.1551 30.8512 22.0701 30.8512C23.9226 30.8512 24.8488 29.7276 24.8488 27.4806V15.1331C24.8488 14.0652 24.6144 13.242 24.1457 12.6636C23.6994 12.0629 23.0075 11.7625 22.0701 11.7625C21.1551 11.7625 20.4632 12.0629 19.9946 12.6636C19.5259 13.242 19.2915 14.0652 19.2915 15.1331V27.4806Z"
    fill="currentColor" />
  <path
    d="M36.0527 32.9536L32.1693 14.3655V32.9869H29.8928V9.62674H33.5419L37.3917 28.2815L41.1077 9.62674H44.7567V32.9869H42.2794V14.1987L38.5634 32.9536H36.0527Z"
    fill="currentColor" />
  <path
    d="M4.1735 53.822L1.58459 41.43V53.8443H0.0669545V38.2708H2.49964L5.06623 50.7073L7.54354 38.2708H9.97622V53.8443H8.32468V41.3187L5.84736 53.822H4.1735Z"
    fill="currentColor" />
  <path
    d="M13.1998 42.0307C13.1998 40.8145 13.4974 39.8578 14.0925 39.1607C14.7026 38.4636 15.5953 38.1151 16.7707 38.1151C17.9461 38.1151 18.8389 38.4636 19.4489 39.1607C20.0589 39.8578 20.3639 40.8145 20.3639 42.0307V50.0844C20.3639 51.3006 20.0589 52.2573 19.4489 52.9543C18.8389 53.6514 17.9461 54 16.7707 54C15.6102 54 14.7249 53.6514 14.1148 52.9543C13.5048 52.2573 13.1998 51.3006 13.1998 50.0844V42.0307ZM14.9183 50.1734C14.9183 50.9001 15.0745 51.4563 15.387 51.842C15.6994 52.2276 16.1607 52.4204 16.7707 52.4204C18.0056 52.4204 18.6231 51.6714 18.6231 50.1734V41.9417C18.6231 41.2298 18.4669 40.681 18.1544 40.2953C17.8569 39.8949 17.3956 39.6947 16.7707 39.6947C16.1607 39.6947 15.6994 39.8949 15.387 40.2953C15.0745 40.681 14.9183 41.2298 14.9183 41.9417V50.1734Z"
    fill="currentColor" />
  <path
    d="M26.5387 49.9731C26.4941 51.2932 26.2412 52.2721 25.7799 52.9099C25.3187 53.5328 24.5227 53.8517 23.3919 53.8665H23.1017V52.2869C23.7862 52.2869 24.24 52.1238 24.4632 51.7975C24.6863 51.4563 24.8128 50.8779 24.8426 50.0621L25.2666 38.2708H31.6273V53.8443H29.8865V39.8504H26.8958L26.5387 49.9731Z"
    fill="currentColor" />
  <path
    d="M36.8572 53.8443H35.0495V38.2708H36.5894V49.8842L37.9731 45.5903L40.4728 38.2708H42.4145V53.8443H40.8522V41.4522L39.156 46.6582L36.8572 53.8443Z"
    fill="currentColor" />
  <path d="M48.1319 39.8504H45.2529V38.2708H52.7518V39.8504H49.8727V53.8443H48.1319V39.8504Z" fill="currentColor" />
  <path
    d="M59.114 38.2708C60.3043 38.2708 61.1673 38.5526 61.7029 39.1162C62.2386 39.6798 62.5064 40.5475 62.5064 41.7192V42.4534C62.5064 43.3136 62.365 43.9959 62.0823 44.5002C61.7996 44.9896 61.331 45.3382 60.6763 45.5458C62.0749 45.9315 62.7742 47.0439 62.7742 48.883V50.1956C62.7742 51.3822 62.4766 52.2869 61.8815 52.9099C61.3012 53.5328 60.4085 53.8443 59.2033 53.8443H55.6101V38.2708H59.114ZM58.69 44.8784C59.419 44.8784 59.9472 44.7301 60.2746 44.4334C60.6168 44.1368 60.7879 43.5954 60.7879 42.8093V41.8972C60.7879 41.2001 60.654 40.6884 60.3862 40.3621C60.1183 40.021 59.6794 39.8504 59.0694 39.8504H57.3509V44.8784H58.69ZM59.2033 52.2647C59.8431 52.2647 60.3118 52.0941 60.6093 51.753C60.9069 51.4118 61.0557 50.8779 61.0557 50.1511V48.7718C61.0557 47.9263 60.8846 47.3331 60.5424 46.9919C60.2002 46.636 59.6422 46.458 58.8685 46.458H57.3509V52.2647H59.2033Z"
    fill="currentColor" />
  <path
    d="M69.193 44.4112C71.6182 44.4112 72.8308 45.6645 72.8308 48.1711V50.0399C72.8308 51.2561 72.5407 52.1979 71.9604 52.8654C71.395 53.518 70.5172 53.8443 69.3269 53.8443H65.9122V38.2708H67.653V44.4112H69.193ZM76 53.8443H74.2815V38.2708H76V53.8443ZM69.3269 52.2647C69.9518 52.2647 70.4056 52.0941 70.6883 51.753C70.971 51.397 71.1123 50.8556 71.1123 50.1289V48.0598C71.1123 47.3182 70.9561 46.7843 70.6436 46.458C70.3312 46.1317 69.8476 45.9685 69.193 45.9685H67.653V52.2647H69.3269Z"
    fill="currentColor" />
</svg>