<svg viewBox="0 0 58 24" fill="none" xmlns="http://www.w3.org/2000/svg">
  <path
    d="M6.13605 22.968L2.42405 5.14401V23H0.248047V0.600006H3.73605L7.41605 18.488L10.968 0.600006H14.456V23H12.088V4.98401L8.53605 22.968H6.13605Z"
    fill="currentColor" />
  <path d="M24.998 12.76H19.526V20.728H26.246V23H17.03V0.600006H26.246V2.87201H19.526V10.52H24.998V12.76Z"
    fill="currentColor" />
  <path d="M31.0573 23H28.5613V0.600006H31.0573V10.68H36.5613V0.600006H39.0573V23H36.5613V12.92H31.0573V23Z"
    fill="currentColor" />
  <path
    d="M52.5038 0.376007C54.1891 0.376007 55.4585 0.87734 56.3118 1.88001C57.1865 2.88267 57.6238 4.25867 57.6238 6.00801V17.592C57.6238 19.3413 57.1865 20.7173 56.3118 21.72C55.4371 22.7227 54.1678 23.224 52.5038 23.224C50.8185 23.224 49.5385 22.7227 48.6638 21.72C47.7891 20.7173 47.3518 19.3413 47.3518 17.592V12.92H44.1198V23H41.6238V0.600006H44.1198V10.68H47.3518V6.00801C47.3518 4.25867 47.7891 2.88267 48.6638 1.88001C49.5385 0.87734 50.8185 0.376007 52.5038 0.376007ZM52.5038 2.64801C50.7331 2.64801 49.8478 3.72534 49.8478 5.88001V17.72C49.8478 18.744 50.0611 19.544 50.4878 20.12C50.9358 20.6747 51.6078 20.952 52.5038 20.952C53.3785 20.952 54.0398 20.6747 54.4878 20.12C54.9358 19.544 55.1598 18.744 55.1598 17.72V5.88001C55.1598 4.83467 54.9358 4.03467 54.4878 3.48001C54.0398 2.92534 53.3785 2.64801 52.5038 2.64801Z"
    fill="currentColor" />
</svg>